<?xml version="1.0" encoding="UTF-8"?>
<svg width="64" height="64" viewBox="0 0 64 64" fill="none" xmlns="http://www.w3.org/2000/svg" role="img" aria-label="mercuryScribe icon">
  <defs>
    <linearGradient id="tw-blue" x1="0" y1="0" x2="1" y2="1">
      <stop offset="0%" stop-color="#60A5FA"/>
      <stop offset="100%" stop-color="#3B82F6"/>
    </linearGradient>
    <linearGradient id="tw-violet" x1="0" y1="0" x2="1" y2="1">
      <stop offset="0%" stop-color="#A78BFA"/>
      <stop offset="100%" stop-color="#7C3AED"/>
    </linearGradient>
    <filter id="shadow" x="-20%" y="-20%" width="140%" height="140%">
      <feDropShadow dx="0" dy="6" stdDeviation="8" flood-color="#0F172A" flood-opacity="0.18"/>
    </filter>
    <linearGradient id="ms-grad" x1="0%" y1="0%" x2="100%" y2="0%">
      <stop offset="0%" stop-color="#7c3aed"/>
      <stop offset="100%" stop-color="#22d3ee"/>
    </linearGradient>
  </defs>

  <!-- Rounded background -->
  <circle cx="32" cy="32" r="28" fill="#f8fafc" stroke="url(#ms-grad)" stroke-width="2"/>
  <path d="M26 28c8-8 18-12 26-8-3 8-9 16-18 24-6 6-12 8-18 8 0-6 3-12 10-18z" fill="url(#ms-grad)"/>
  <path d="M16 48c10-8 20-8 30 0" fill="none" stroke="url(#ms-grad)" stroke-width="2" stroke-linecap="round"/>

  <!-- Wave mark centered -->
  <g transform="translate(68,48)" filter="url(#shadow)">
    <rect x="0"   y="76" width="16" height="44" rx="8" fill="url(#tw-violet)"/>
    <rect x="28"  y="52" width="16" height="92" rx="8" fill="url(#tw-blue)"/>
    <rect x="56"  y="20" width="16" height="156" rx="8" fill="url(#tw-violet)"/>
    <rect x="84"  y="52" width="16" height="92" rx="8" fill="url(#tw-blue)"/>
    <rect x="112" y="76" width="16" height="44" rx="8" fill="url(#tw-violet)"/>
  </g>
</svg>
