<?xml version="1.0" encoding="utf-8"?>
<!-- Generator: Adobe Illustrator 16.0.0, SVG Export Plug-In . SVG Version: 6.00 Build 0)  -->
<!DOCTYPE svg PUBLIC "-//W3C//DTD SVG 1.1//EN" "http://www.w3.org/Graphics/SVG/1.1/DTD/svg11.dtd">
<svg version="1.1" id="Layer_1" xmlns="http://www.w3.org/2000/svg" xmlns:xlink="http://www.w3.org/1999/xlink" x="0px" y="0px"
	 width="612px" height="792px" viewBox="0 0 612 792" enable-background="new 0 0 612 792" xml:space="preserve">
<g>
	<g>
		<path d="M297.585,352.358c1.48,0.063,2.817,0.096,4.016,0.096c1.165,0,2.73-0.033,4.698-0.096l0.096,1.015l-2.977,0.922
			c-0.36,0.126-0.55,0.394-0.564,0.802c-0.033,1.04-0.049,2.346-0.049,3.918v19.145c0,1.857,0.016,3.423,0.049,4.699
			c0.015,0.361,0.234,0.605,0.66,0.73l2.833,0.875l0.048,1.014c-2.078-0.047-4.064-0.069-5.963-0.069
			c-1.865,0-3.7,0.022-5.512,0.069l-0.093-1.014l2.716-0.828c0.375-0.108,0.573-0.385,0.588-0.826
			c0.03-1.242,0.049-2.793,0.049-4.65v-20.444l-11.709,27.692l-1.725,0.188l-11.78-27.88v20.444c0,1.857,0.018,3.408,0.048,4.65
			c0.015,0.441,0.223,0.718,0.615,0.826l2.644,0.828l0.045,1.014c-1.871-0.047-3.436-0.069-4.694-0.069
			c-1.229,0-2.856,0.022-4.888,0.069l-0.096-1.014l2.904-0.875c0.409-0.125,0.622-0.369,0.637-0.73
			c0.033-1.275,0.049-2.842,0.049-4.699v-19.145c0-1.572-0.016-2.879-0.049-3.918c-0.015-0.408-0.204-0.676-0.564-0.802
			l-2.929-0.922l-0.048-1.015c2.03,0.063,3.638,0.096,4.818,0.096c1.354,0,2.763-0.033,4.229-0.096l10.961,25.897L297.585,352.358z"
			/>
		<path d="M329.271,383.732c-1.34,0.834-2.716,1.432-4.133,1.793c-1.415,0.363-2.73,0.545-3.941,0.545
			c-3.463,0-6.26-0.988-8.393-2.964s-3.199-4.717-3.199-8.226c0-3.495,0.994-6.35,2.986-8.57c1.988-2.22,4.646-3.329,7.975-3.329
			c2.791,0,4.963,0.829,6.516,2.49s2.331,3.953,2.331,6.882c0,0.44-0.024,0.889-0.072,1.346h-14.896
			c0,3.382,0.796,5.804,2.385,7.257c1.589,1.457,4.076,2.184,7.458,2.184c1.511,0,3.124-0.141,4.839-0.423L329.271,383.732z
			 M324.573,371.74v-0.708c0-2.235-0.351-3.833-1.054-4.794c-0.7-0.958-1.745-1.439-3.13-1.439c-1.836,0-3.238,0.676-4.209,2.031
			c-0.97,1.353-1.517,2.989-1.64,4.91H324.573z"/>
		<path d="M332.29,364.635c2.632-0.505,5.134-1.054,7.507-1.652l0.237,0.166v2.76c2.91-1.949,5.768-2.926,8.569-2.926l0.117,0.142
			c-0.456,2.346-0.907,4.776-1.346,7.294l-0.943,0.166c-0.441-1.338-0.867-2.412-1.276-3.222c-0.408-0.811-1.054-1.217-1.935-1.217
			c-0.85,0-1.913,0.394-3.187,1.181v10.222c0,2.454,0.015,4.208,0.045,5.263c0.019,0.427,0.213,0.693,0.592,0.804l3.139,0.896
			l0.072,0.968c-2.457-0.047-4.458-0.069-6.008-0.069s-3.379,0.022-5.487,0.069l-0.097-0.968l2.739-0.802
			c0.376-0.127,0.574-0.369,0.589-0.732c0.016-0.677,0.024-1.644,0.024-2.902v-8.05c0-2.565-0.033-4.479-0.093-5.737l-3.14-0.85
			L332.29,364.635z"/>
		<path d="M369.715,383.732c-0.977,0.661-2.184,1.215-3.623,1.664c-1.441,0.448-2.868,0.674-4.286,0.674
			c-3.397,0-6.116-0.996-8.155-2.986c-2.037-1.992-3.058-4.647-3.058-7.969c0-3.603,1.153-6.527,3.46-8.768
			c2.304-2.244,5.244-3.364,8.816-3.364c2.312,0,4.557,0.472,6.729,1.417c-0.52,2.109-0.985,4.264-1.395,6.469l-0.919,0.141
			l-1.913-5.665c-0.724-0.252-1.544-0.378-2.454-0.378c-2.346,0-4.179,0.818-5.5,2.454c-1.325,1.637-1.985,3.801-1.985,6.493
			c0,3.163,0.748,5.5,2.244,7.011c1.495,1.511,3.862,2.267,7.106,2.267c1.493,0,3.091-0.15,4.791-0.447L369.715,383.732z"/>
		<path d="M389.894,383.33c-2.46,1.826-4.917,2.74-7.374,2.74c-2.475,0-4.331-0.631-5.569-1.891
			c-1.234-1.258-1.853-3.029-1.853-5.31v-5.004c0-3.367-0.033-5.894-0.097-7.579l-3.139-0.85l-0.117-0.802
			c2.758-0.505,5.313-1.054,7.672-1.652l0.213,0.166c-0.096,1.841-0.144,4.209-0.144,7.104v7.508c0,1.904,0.447,3.285,1.342,4.144
			c0.896,0.856,2.16,1.286,3.794,1.286c1.631,0,3.305-0.433,5.017-1.298v-10.057c0-2.204-0.033-4.052-0.096-5.548l-3.115-0.85
			l-0.117-0.802c2.739-0.505,5.289-1.054,7.647-1.652l0.213,0.166c-0.096,1.888-0.141,4.304-0.141,7.247
			c0,5.712,0.015,9.199,0.045,10.457c0.015,0.646,0.063,1.166,0.142,1.56c0.081,0.394,0.228,0.695,0.45,0.907
			c0.22,0.213,0.547,0.363,0.979,0.449c0.433,0.087,1.009,0.138,1.736,0.154l0.117,0.92c-0.725,0.283-1.56,0.555-2.503,0.813
			c-0.946,0.261-1.592,0.391-1.938,0.391C391.468,386.046,390.414,385.142,389.894,383.33z"/>
		<path d="M399.978,364.635c2.632-0.505,5.134-1.054,7.507-1.652l0.237,0.166v2.76c2.91-1.949,5.767-2.926,8.569-2.926l0.117,0.142
			c-0.456,2.346-0.907,4.776-1.346,7.294l-0.943,0.166c-0.441-1.338-0.868-2.412-1.276-3.222c-0.408-0.811-1.054-1.217-1.935-1.217
			c-0.85,0-1.913,0.394-3.187,1.181v10.222c0,2.454,0.015,4.208,0.045,5.263c0.018,0.427,0.213,0.693,0.592,0.804l3.139,0.896
			l0.072,0.968c-2.457-0.047-4.458-0.069-6.008-0.069s-3.379,0.022-5.491,0.069l-0.093-0.968l2.739-0.802
			c0.376-0.127,0.574-0.369,0.589-0.732c0.015-0.677,0.024-1.644,0.024-2.902v-8.05c0-2.565-0.033-4.479-0.094-5.737l-3.142-0.85
			L399.978,364.635z"/>
		<path d="M416.991,363.525c1.982,0.046,3.745,0.07,5.286,0.07c1.055,0,2.74-0.024,5.053-0.07l0.093,0.969l-2.76,0.754
			c0.582,1.654,1.259,3.475,2.03,5.465c0.769,1.992,1.589,4.065,2.454,6.221c0.36,0.897,0.754,1.927,1.181,3.093
			c0.441-1.181,0.913-2.385,1.414-3.612c0.742-1.825,1.457-3.624,2.151-5.393c0.69-1.772,1.405-3.695,2.147-5.773l-2.691-0.754
			l-0.096-0.969c1.165,0.046,2.525,0.07,4.085,0.07c1.399,0,2.761-0.024,4.085-0.07l0.117,0.969l-2.195,0.613
			c-0.487,0.158-0.842,0.48-1.063,0.967c-0.583,1.339-1.211,2.802-1.887,4.391c-2.079,4.878-3.652,8.877-4.722,11.992
			c-0.725,2.109-1.379,4.27-1.959,6.481c-0.582,2.211-1.033,4.108-1.346,5.7c-0.141,0.77-0.43,1.357-0.861,1.758
			c-0.433,0.402-1.445,0.603-3.034,0.603c-1.622,0-3.196-0.056-4.722-0.165l-0.117-0.921c1.729-0.267,3.013-0.826,3.848-1.676
			c1.006-1.086,2.565-3.974,4.674-8.663l0.189-0.449l-0.331-0.095c-2.88-7.176-5.484-13.487-7.815-18.933
			c-0.204-0.472-0.564-0.793-1.084-0.967l-2.079-0.637L416.991,363.525z"/>
	</g>
</g>
<g>
	<g>
		<path d="M291.445,397.611c-2.16-0.754-4.148-1.131-5.96-1.131c-2.719,0-4.884,0.689-6.5,2.07
			c-1.619,1.379-2.425,3.298-2.425,5.756c0,1.402,0.283,2.631,0.848,3.688c0.567,1.058,1.327,1.984,2.286,2.781
			c0.958,0.798,2.042,1.51,3.259,2.135c1.214,0.626,2.469,1.24,3.767,1.843c1.421,0.649,2.8,1.333,4.14,2.055
			c1.34,0.724,2.547,1.567,3.628,2.538c1.082,0.971,1.946,2.136,2.596,3.493c0.648,1.359,0.974,2.944,0.974,4.755
			c0,4.293-1.602,7.57-4.804,9.832c-3.202,2.265-7.347,3.396-12.433,3.396c-3.271,0-6.896-0.582-10.871-1.744l-0.183-0.262
			l1.511-10.996l1.391-0.227l2.163,9.186c2.181,0.908,4.415,1.357,6.701,1.357c3.067,0,5.461-0.711,7.183-2.132
			c1.718-1.424,2.577-3.452,2.577-6.083c0-1.379-0.276-2.592-0.835-3.637c-0.557-1.046-1.301-1.947-2.238-2.701
			s-2.004-1.438-3.196-2.055c-1.195-0.614-2.43-1.223-3.706-1.826c-1.442-0.647-2.842-1.349-4.199-2.103
			c-1.361-0.754-2.59-1.634-3.692-2.638c-1.103-1.002-1.982-2.23-2.64-3.686c-0.661-1.457-0.988-3.154-0.988-5.094
			c0-3.902,1.559-6.922,4.68-9.057c3.118-2.135,6.983-3.202,11.595-3.202c3.253,0,6.662,0.399,10.225,1.196l0.216,0.228
			l-1.823,10.089l-1.234,0.229L291.445,397.611z"/>
		<path d="M326.625,437.654c-1.276,0.904-2.856,1.664-4.743,2.279c-1.883,0.613-3.751,0.922-5.604,0.922
			c-4.445,0-8.006-1.363-10.67-4.091c-2.667-2.728-4.001-6.368-4.001-10.917c0-4.938,1.508-8.942,4.526-12.016
			c3.017-3.072,6.861-4.609,11.535-4.609c3.027,0,5.959,0.647,8.801,1.941c-0.679,2.889-1.285,5.844-1.82,8.861l-1.204,0.194
			l-2.502-7.762c-0.946-0.345-2.019-0.519-3.212-0.519c-3.069,0-5.467,1.122-7.196,3.365c-1.73,2.242-2.596,5.207-2.596,8.894
			c0,4.333,0.979,7.535,2.935,9.604c1.956,2.072,5.056,3.105,9.297,3.105c1.955,0,4.046-0.203,6.27-0.612L326.625,437.654z"/>
		<path d="M330.206,411.488c3.442-0.691,6.713-1.445,9.819-2.266l0.312,0.227v3.783c3.809-2.673,7.545-4.01,11.21-4.01l0.153,0.195
			c-0.598,3.213-1.184,6.544-1.761,9.994l-1.234,0.225c-0.577-1.832-1.133-3.304-1.667-4.414c-0.538-1.109-1.382-1.665-2.532-1.665
			c-1.111,0-2.502,0.539-4.169,1.616v14.006c0,3.361,0.018,5.768,0.06,7.213c0.021,0.582,0.279,0.949,0.772,1.1l4.108,1.229
			l0.094,1.327c-3.214-0.065-5.834-0.099-7.861-0.099s-4.421,0.033-7.179,0.099l-0.126-1.327l3.583-1.1
			c0.493-0.172,0.751-0.508,0.772-1.004c0.021-0.925,0.029-2.252,0.029-3.977v-11.03c0-3.515-0.042-6.134-0.123-7.859l-4.106-1.163
			L330.206,411.488z"/>
		<path d="M354.452,411.488c3.604-0.713,6.951-1.467,10.036-2.266l0.279,0.227c-0.123,2.805-0.187,5.887-0.187,9.25v12.422
			c0,2.586,0.021,4.376,0.063,5.367c0.039,0.583,0.297,0.961,0.771,1.133l3.58,1.1l0.063,1.327
			c-2.842-0.065-5.274-0.099-7.306-0.099c-2.027,0-4.43,0.033-7.212,0.099l-0.123-1.327l3.584-1.1
			c0.475-0.172,0.729-0.508,0.771-1.004c0.042-0.841,0.063-2.252,0.063-4.234v-10.805c0-2.824-0.042-5.435-0.123-7.827l-4.109-1.163
			L354.452,411.488z M364.891,397.773c0,1.144-0.34,2.076-1.019,2.799c-0.682,0.723-1.556,1.082-2.625,1.082
			c-1.03,0-1.868-0.334-2.518-1.001c-0.648-0.67-0.974-1.554-0.974-2.652c0-1.165,0.34-2.088,1.019-2.767s1.574-1.019,2.688-1.019
			c1.007,0,1.832,0.307,2.47,0.923C364.572,395.752,364.891,396.631,364.891,397.773z"/>
		<path d="M381.907,391.468c-0.124,3.233-0.184,8.095-0.184,14.586v6.566c3.331-2.265,6.386-3.397,9.161-3.397
			c3.894,0,6.969,1.357,9.225,4.076c2.26,2.716,3.386,6.264,3.386,10.64c0,5.325-1.454,9.474-4.361,12.436
			c-2.911,2.968-6.942,4.448-12.1,4.448c-3.437,0-7.143-0.615-11.117-1.844c0.039-2.736,0.061-6.263,0.061-10.576v-19.18
			c0-4.764-0.042-9.217-0.123-13.357l-4.17-1.293l-0.155-1.068c3.379-0.666,6.737-1.433,10.068-2.296L381.907,391.468z
			 M381.724,437.2c1.664,0.562,3.35,0.841,5.053,0.841c3.454,0,6.046-1.111,7.782-3.331c1.739-2.22,2.607-5.401,2.607-9.542
			c0-3.795-0.802-6.748-2.406-8.862c-1.604-2.111-3.977-3.169-7.119-3.169c-2.016,0-3.985,0.475-5.917,1.424V437.2z"/>
		<path d="M433.95,437.654c-1.751,1.141-3.554,1.961-5.406,2.457c-1.854,0.495-3.571,0.744-5.158,0.744
			c-4.529,0-8.188-1.354-10.979-4.061c-2.79-2.703-4.185-6.461-4.185-11.271c0-4.788,1.301-8.7,3.902-11.741
			c2.604-3.041,6.083-4.561,10.438-4.561c3.649,0,6.491,1.139,8.521,3.412c2.033,2.275,3.049,5.42,3.049,9.43
			c0,0.604-0.03,1.218-0.09,1.843h-19.489c0,4.636,1.04,7.952,3.118,9.946c2.079,1.995,5.332,2.992,9.76,2.992
			c1.976,0,4.088-0.195,6.332-0.582L433.95,437.654z M427.805,421.223v-0.97c0-3.062-0.46-5.251-1.379-6.566
			c-0.916-1.315-2.283-1.974-4.097-1.974c-2.4,0-4.235,0.928-5.506,2.781c-1.268,1.857-1.985,4.098-2.146,6.729H427.805z"/>
	</g>
</g>
<g>
	<path d="M257.22,352.713c-0.538-0.538-1.189-0.805-1.971-0.805h-31.828h-5.154c0.075,0.501,0.153,1,0.22,1.499
		c1.258,7.383,2.502,14.704,3.718,22.021c0.097,0.583,0.013,1.316-0.191,1.862c-2.679,7.257-5.39,14.49-8.091,21.703
		c0-6.181-0.032-12.516,0.056-18.849c0.012-0.772,0.933-1.481,1.05-2.306c0.064-0.437,0.13-0.907,0.169-1.386
		c0.019-0.493,0.019-0.991,0.019-1.493c-0.039-0.383-0.117-0.736-0.257-1.024c-0.048-0.083-0.112-0.14-0.206-0.184
		c-0.352-0.025-0.742-0.073-1.098-0.102c-0.362,0.029-0.746,0.077-1.104,0.102c-0.088,0.044-0.156,0.101-0.202,0.184
		c-0.143,0.288-0.222,0.641-0.26,1.024c0,0.501,0,1,0.021,1.496c0.04,0.476,0.101,0.952,0.167,1.383
		c0.12,0.825,1.036,1.533,1.051,2.306c0.09,6.333,0.051,12.668,0.051,18.849c-2.7-7.213-5.409-14.445-8.092-21.703
		c-0.196-0.546-0.285-1.279-0.18-1.862c1.213-7.323,2.46-14.645,3.715-22.024c0.069-0.5,0.14-0.994,0.215-1.496h-4.574h-31.741
		c-0.781,0-1.435,0.267-1.972,0.805c-0.535,0.536-0.806,1.165-0.806,1.88v83.835c0,0.721,0.271,1.346,0.806,1.884
		c0.537,0.534,1.19,0.805,1.972,0.805h6.223c2.419-3.884,6.604-8.771,11.13-7.555c3.33,0.896,5.432,4.905,7.753,7.555h9.051h11.484
		c6.642-3.77,11.991-7.885,13.22-9.236c11.002-12.084,12.683-29.407,2.613-25.177c-5.671,2.384-33.46,29.826-36.792,16.347
		c-2.288-9.262,15.732-13.738,15.796-23.551c-0.012-0.104-0.024-0.207-0.042-0.312l0.048,0.078c0.003,0.078-0.006,0.154-0.006,0.234
		c1.266,8.33-10.384,13.38-10.215,17.586c0.371,9.361,15.492-3.411,20.137-7.592c4.355-3.921,16.286-17.711,26.949-6.695
		c8.468,8.757,0.457,26.408-7.086,38.318h12.265c0.781,0,1.433-0.271,1.971-0.805c0.538-0.538,0.805-1.163,0.805-1.884v-83.835
		C258.024,353.878,257.758,353.249,257.22,352.713"/>
	<path fill="#FFFFFF" d="M250.07,402.804c-10.663-11.024-22.594,2.77-26.949,6.69c-4.645,4.181-19.766,16.953-20.137,7.588
		c-0.169-4.202,11.48-9.252,10.215-17.579c-0.063,9.81-18.084,14.286-15.796,23.548c3.332,13.479,31.124-13.963,36.795-16.347
		c10.066-4.23,8.386,13.093-2.616,25.177c-1.229,1.352-6.578,5.467-13.22,9.236h2.644h16.35h5.629
		C250.527,429.207,258.538,411.556,250.07,402.804"/>
</g>
<g>
	<path fill="#9FC9EB" d="M205.191,375.536c-0.105,0.584-0.021,1.32,0.177,1.861c2.678,7.258,5.395,14.494,8.094,21.707
		c0-6.182,0.041-12.518-0.053-18.85c-0.012-0.774-0.928-1.483-1.05-2.307c-0.062-0.432-0.131-0.904-0.171-1.383
		c-0.017-0.497-0.017-0.996-0.017-1.496c0.039-0.383,0.112-0.737,0.262-1.027c0.039-0.077,0.107-0.137,0.196-0.179
		c0.36-0.027,0.74-0.072,1.106-0.102c0.355,0.03,0.742,0.075,1.1,0.102c0.088,0.042,0.156,0.102,0.198,0.179
		c0.146,0.29,0.22,0.645,0.259,1.027c0.004,0.5,0,0.999-0.017,1.496c-0.041,0.479-0.105,0.944-0.167,1.383
		c-0.117,0.823-1.042,1.532-1.051,2.307c-0.091,6.332-0.052,12.668-0.052,18.85c2.694-7.213,5.41-14.449,8.088-21.707
		c0.206-0.541,0.287-1.277,0.188-1.861c-1.212-7.317-2.458-14.636-3.716-22.02c-0.068-0.497-0.143-0.999-0.217-1.497h-9.235
		c-0.069,0.499-0.145,0.997-0.209,1.493C207.646,360.895,206.398,368.217,205.191,375.536"/>
</g>
</svg>
