<?xml version="1.0" encoding="utf-8"?>
<!-- Generator: Adobe Illustrator 16.0.0, SVG Export Plug-In . SVG Version: 6.00 Build 0)  -->
<!DOCTYPE svg PUBLIC "-//W3C//DTD SVG 1.1//EN" "http://www.w3.org/Graphics/SVG/1.1/DTD/svg11.dtd">
<svg version="1.1" id="Layer_1" xmlns="http://www.w3.org/2000/svg" xmlns:xlink="http://www.w3.org/1999/xlink" x="0px" y="0px"
	 width="612px" height="792px" viewBox="0 0 612 792" enable-background="new 0 0 612 792" xml:space="preserve">
<g>
	<path d="M358.266,343.312c-0.65-0.65-1.438-0.973-2.383-0.973h-38.48h-6.231c0.091,0.605,0.185,1.209,0.265,1.812
		c1.521,8.927,3.025,17.777,4.496,26.624c0.116,0.704,0.015,1.59-0.232,2.252c-3.237,8.773-6.516,17.519-9.782,26.238
		c0-7.473-0.038-15.131,0.067-22.789c0.015-0.934,1.128-1.79,1.27-2.787c0.078-0.528,0.158-1.097,0.205-1.676
		c0.021-0.596,0.021-1.199,0.021-1.805c-0.047-0.463-0.142-0.891-0.311-1.238c-0.058-0.101-0.136-0.17-0.248-0.223
		c-0.425-0.03-0.897-0.088-1.328-0.123c-0.438,0.035-0.902,0.093-1.334,0.123c-0.105,0.053-0.189,0.122-0.243,0.223
		c-0.173,0.348-0.27,0.775-0.314,1.238c0,0.605,0,1.209,0.025,1.809c0.049,0.575,0.121,1.15,0.201,1.672
		c0.146,0.997,1.253,1.854,1.271,2.787c0.109,7.658,0.062,15.316,0.062,22.789c-3.265-8.72-6.54-17.465-9.783-26.238
		c-0.238-0.662-0.346-1.548-0.218-2.252c1.467-8.854,2.974-17.706,4.492-26.627c0.083-0.605,0.169-1.203,0.26-1.809h-5.531h-38.376
		c-0.943,0-1.733,0.322-2.384,0.973c-0.646,0.648-0.974,1.409-0.974,2.273v101.359c0,0.871,0.327,1.627,0.974,2.276
		c0.65,0.646,1.44,0.974,2.384,0.974h7.523c2.925-4.695,7.985-10.604,13.457-9.134c4.025,1.082,6.565,5.931,9.373,9.134h10.942
		h13.886c8.029-4.558,14.497-9.533,15.982-11.167c13.301-14.61,15.333-35.554,3.159-30.438c-6.856,2.881-40.454,36.06-44.481,19.763
		c-2.768-11.198,19.021-16.609,19.097-28.474c-0.015-0.125-0.029-0.25-0.051-0.377l0.058,0.094c0.004,0.095-0.007,0.188-0.007,0.283
		c1.531,10.072-12.555,16.178-12.35,21.262c0.449,11.317,18.73-4.124,24.345-9.178c5.266-4.74,19.69-21.414,32.583-8.095
		c10.238,10.587,0.553,31.928-8.566,46.327h14.827c0.944,0,1.732-0.327,2.383-0.974c0.65-0.649,0.974-1.405,0.974-2.276V345.586
		C359.239,344.722,358.916,343.961,358.266,343.312"/>
	<path fill="#FFFFFF" d="M349.622,403.874c-12.893-13.328-27.317,3.349-32.583,8.089c-5.614,5.054-23.896,20.495-24.345,9.174
		c-0.205-5.08,13.881-11.186,12.35-21.254c-0.076,11.86-21.864,17.271-19.097,28.47c4.027,16.297,37.629-16.882,44.485-19.763
		c12.17-5.115,10.138,15.828-3.163,30.438c-1.485,1.634-7.953,6.609-15.982,11.167h3.195h19.768h6.806
		C350.175,435.796,359.86,414.455,349.622,403.874"/>
</g>
<g>
	<path fill="#9FC9EB" d="M295.362,370.906c-0.127,0.706-0.025,1.596,0.214,2.25c3.237,8.775,6.522,17.523,9.785,26.243
		c0-7.474,0.05-15.133-0.063-22.788c-0.015-0.938-1.122-1.794-1.269-2.789c-0.075-0.523-0.158-1.094-0.207-1.673
		c-0.021-0.601-0.021-1.204-0.021-1.808c0.047-0.464,0.137-0.893,0.316-1.242c0.047-0.094,0.131-0.166,0.237-0.217
		c0.437-0.032,0.896-0.087,1.339-0.123c0.428,0.036,0.896,0.091,1.329,0.123c0.105,0.051,0.188,0.123,0.239,0.217
		c0.177,0.35,0.266,0.778,0.312,1.242c0.006,0.604,0,1.207-0.02,1.808c-0.05,0.579-0.128,1.143-0.202,1.673
		c-0.142,0.995-1.26,1.852-1.271,2.789c-0.109,7.655-0.062,15.314-0.062,22.788c3.258-8.72,6.541-17.468,9.778-26.243
		c0.249-0.654,0.347-1.544,0.228-2.25c-1.466-8.848-2.973-17.695-4.492-26.622c-0.084-0.601-0.173-1.208-0.264-1.811h-11.166
		c-0.083,0.603-0.174,1.206-0.252,1.806C298.329,353.205,296.822,362.058,295.362,370.906"/>
</g>
</svg>
